<svg width="18" height="18" viewBox="0 0 18 18" fill="none" xmlns="http://www.w3.org/2000/svg">
<rect width="6" height="6" transform="matrix(0 -1 -1 -4.37114e-08 18 12)" fill="#16191B"/>
<rect width="6" height="6" transform="matrix(0 -1 -1 -4.37114e-08 18 6)" fill="#16191B"/>
<rect width="6" height="6" transform="matrix(0 -1 -1 -4.37114e-08 18 18)" fill="#16191B"/>
<rect width="6" height="6" transform="matrix(0 -1 -1 -4.37114e-08 12 6)" fill="#16191B"/>
<rect width="6" height="6" transform="matrix(0 -1 -1 -4.37114e-08 12 18)" fill="#16191B"/>
<rect width="6" height="6" transform="matrix(0 -1 -1 -4.37114e-08 6 6)" fill="#16191B"/>
<rect width="6" height="6" transform="matrix(0 -1 -1 -4.37114e-08 6 18)" fill="#16191B"/>
<rect width="6" height="6" transform="matrix(0 -1 -1 -4.37114e-08 6 12)" fill="#16191B"/>
</svg>
