<svg width="63" height="16" viewBox="0 0 63 16" fill="none" xmlns="http://www.w3.org/2000/svg">
<rect x="28.2656" y="6.28129" width="21.9841" height="3.14074" fill="#222121"/>
<rect x="27.7676" width="22.9791" height="3.14074" fill="#222121"/>
<rect x="50.2959" y="9.4223" width="3.08568" height="6.17166" fill="#222121"/>
<rect x="50.25" width="3.14058" height="6.28149" fill="#222121"/>
<rect x="3.1416" y="6.28129" width="21.9841" height="3.14074" fill="#222121"/>
<rect x="25.1523" y="9.4223" width="3.08568" height="6.17166" fill="#222121"/>
<rect x="25.1289" width="3.14058" height="6.28149" fill="#222121"/>
<rect x="0.00976562" y="9.4223" width="3.19997" height="6.17166" fill="#222121"/>
<rect width="3.14058" height="6.28149" fill="#222121"/>
<path d="M58.2872 14.061V10.5816H59.3254C59.6498 10.5816 59.9093 10.6167 60.104 10.687C60.304 10.7573 60.4473 10.8681 60.5338 11.0195C60.6258 11.1655 60.6717 11.3548 60.6717 11.5873C60.6717 11.7982 60.6122 11.9793 60.4933 12.1307C60.3743 12.2821 60.1959 12.4037 59.958 12.4957L60.9313 14.061H60.2824L59.447 12.6417H58.8468V14.061H58.2872ZM58.8468 12.2118H59.3254C59.5795 12.2118 59.7687 12.1604 59.8931 12.0577C60.0229 11.955 60.0878 11.8036 60.0878 11.6035C60.0878 11.3764 60.0175 11.225 59.8769 11.1493C59.7417 11.0682 59.547 11.0276 59.2929 11.0276H58.8468V12.2118ZM59.3416 15.6831C58.882 15.6831 58.4494 15.5966 58.0439 15.4236C57.6383 15.2506 57.2815 15.0127 56.9733 14.7099C56.6705 14.4017 56.4326 14.0448 56.2595 13.6393C56.0865 13.2337 56 12.8012 56 12.3416C56 11.8766 56.0865 11.444 56.2595 11.0439C56.4326 10.6383 56.6705 10.2842 56.9733 9.98138C57.2815 9.67318 57.6383 9.43257 58.0439 9.25954C58.4494 9.08651 58.882 9 59.3416 9C59.8066 9 60.2392 9.08651 60.6393 9.25954C61.0448 9.43257 61.399 9.67318 61.7018 9.98138C62.01 10.2842 62.2506 10.6383 62.4236 11.0439C62.5966 11.444 62.6832 11.8766 62.6832 12.3416C62.6832 12.8012 62.5966 13.2337 62.4236 13.6393C62.2506 14.0448 62.01 14.4017 61.7018 14.7099C61.399 15.0127 61.0448 15.2506 60.6393 15.4236C60.2392 15.5966 59.8066 15.6831 59.3416 15.6831ZM59.3416 15.2289C59.7417 15.2289 60.1148 15.1559 60.4608 15.0099C60.8123 14.8586 61.1205 14.6504 61.3855 14.3854C61.6504 14.1205 61.8559 13.815 62.0019 13.4689C62.1533 13.1175 62.229 12.7417 62.229 12.3416C62.229 11.9414 62.1533 11.5684 62.0019 11.2223C61.8559 10.8708 61.6504 10.5626 61.3855 10.2977C61.1205 10.0327 60.8123 9.82728 60.4608 9.68129C60.1148 9.52989 59.7417 9.45419 59.3416 9.45419C58.9415 9.45419 58.5657 9.52989 58.2142 9.68129C57.8681 9.82728 57.5626 10.0327 57.2977 10.2977C57.0328 10.5626 56.8246 10.8708 56.6732 11.2223C56.5272 11.5684 56.4542 11.9414 56.4542 12.3416C56.4542 12.7417 56.5272 13.1175 56.6732 13.4689C56.8246 13.815 57.0328 14.1205 57.2977 14.3854C57.5626 14.6504 57.8681 14.8586 58.2142 15.0099C58.5657 15.1559 58.9415 15.2289 59.3416 15.2289Z" fill="#222121"/>
</svg>
