<svg width="329" height="15" viewBox="0 0 329 15" fill="none" xmlns="http://www.w3.org/2000/svg">
<path d="M52.9454 14.9995H32.5448V11.9996H52.9454V14.9995Z" fill="#16191B"/>
<path d="M32.5448 11.9996L29.6302 11.9989V2.99977H32.5448V11.9996Z" fill="#16191B"/>
<path d="M55.8601 11.9989L52.9454 11.9996V2.99977H55.8601V11.9989Z" fill="#16191B"/>
<path d="M52.9454 2.99977H32.5448V0.000537426H52.9454V2.99977Z" fill="#16191B"/>
<path d="M62.175 6.0004H82.5762V8.99963H85.4902V14.9988H82.5756L82.5762 8.99963H62.175V14.9988H59.2603V2.99977H62.175V6.0004Z" fill="#16191B"/>
<path d="M85.4902 5.9997L82.5762 6.0004L82.5756 3.00047L62.175 2.99977V0.000537426H85.4902V5.9997Z" fill="#16191B"/>
<path d="M121.435 6.0004H144.751V8.99963H121.435V11.9996H144.751V14.9995L118.521 14.9988V2.99977H121.435V6.0004Z" fill="#16191B"/>
<path d="M144.751 3.00047L121.435 2.99977V0.000537426H144.751V3.00047Z" fill="#16191B"/>
<path d="M2.91466 14.9988H0V8.99963H2.91466V14.9988Z" fill="#16191B"/>
<path d="M26.2299 14.9988H23.3153V8.99963H26.2299V14.9988Z" fill="#16191B"/>
<path d="M23.3153 8.99963H2.91466V6.0004H23.3153V8.99963Z" fill="#16191B"/>
<path d="M2.91466 6.0004H0V0.000537426H2.91466V6.0004Z" fill="#16191B"/>
<path d="M26.2299 5.9997L23.3153 6.0004V0.000537426H26.2299V5.9997Z" fill="#16191B"/>
<path d="M112.206 0.000537426V3.00047H91.8051V11.9996H112.206V3.00047L115.12 2.99977V14.9995H88.8905V0.000537426H112.206Z" fill="#16191B"/>
<path d="M157.38 14.9986H154.465V9.19893H157.38V14.9986Z" fill="#16191B"/>
<path d="M180.695 14.9986H177.781V9.19893H180.695V14.9986Z" fill="#16191B"/>
<path d="M177.781 9.19893H157.38V6.1997H177.781V9.19893Z" fill="#16191B"/>
<path d="M180.695 6.1997H177.781V3.19977H157.38V6.1997H154.465V0.200534H180.695V6.1997Z" fill="#16191B"/>
<path d="M187.01 12.0001H207.411V15H184.096V3.20116H187.01V12.0001Z" fill="#16191B"/>
<path d="M210.326 11.9994L207.411 12.0001V9.00014H189.924V6.00091H210.326V11.9994Z" fill="#16191B"/>
<path d="M210.326 3.20046L187.01 3.20116V0.201232H210.326V3.20046Z" fill="#16191B"/>
<path d="M216.64 5.99986H239.956V8.99909H216.64V11.999H239.956V14.9989L213.726 14.9983V2.99923H216.64V5.99986Z" fill="#16191B"/>
<path d="M239.956 2.99993L216.64 2.99923V0H239.956V2.99993Z" fill="#16191B"/>
<path d="M305.531 5.99986H328.846V8.99909H305.531V11.999H328.846V14.9989L302.616 14.9983V2.99923H305.531V5.99986Z" fill="#16191B"/>
<path d="M328.846 2.99993L305.531 2.99923V0H328.846V2.99993Z" fill="#16191B"/>
<path d="M275.901 11.999H299.216V14.9989L272.986 14.9983V2.99923H275.901V11.999Z" fill="#16191B"/>
<path d="M299.216 2.99993L275.901 2.99923V0H299.216V2.99993Z" fill="#16191B"/>
<path d="M266.672 0V2.99993H246.271V14.9989H243.356V0H266.672Z" fill="#16191B"/>
<path d="M269.586 14.9983H266.672V2.99993L269.586 2.99923V14.9983Z" fill="#16191B"/>
</svg>
