<svg width="305" height="304" viewBox="0 0 305 304" fill="none" xmlns="http://www.w3.org/2000/svg">
<rect x="201.5" y="201.5" width="99" height="99" fill="#16191B" stroke="#5C5E5F"/>
<rect x="201.5" y="201.5" width="99" height="99" rx="49.5" fill="white" stroke="#5C5E5F"/>
<rect x="102.5" y="201.5" width="99" height="99" fill="#16191B" stroke="#5C5E5F"/>
<path d="M201.5 201.5V251C201.5 278.338 179.338 300.5 152 300.5C124.662 300.5 102.5 278.338 102.5 251V201.5H201.5Z" fill="white" stroke="#5C5E5F"/>
<rect x="3.5" y="201.5" width="99" height="99" fill="#16191B" stroke="#5C5E5F"/>
<rect x="3.5" y="201.5" width="99" height="99" rx="49.5" fill="white" stroke="#5C5E5F"/>
<rect x="201.5" y="102.5" width="99" height="99" fill="#16191B" stroke="#5C5E5F"/>
<path d="M251 102.5C278.338 102.5 300.5 124.662 300.5 152C300.5 179.338 278.338 201.5 251 201.5H201.5V102.5H251Z" fill="white" stroke="#5C5E5F"/>
<rect x="201.5" y="3.5" width="99" height="99" fill="#16191B" stroke="#5C5E5F"/>
<rect x="201.5" y="3.5" width="99" height="99" rx="49.5" fill="white" stroke="#5C5E5F"/>
<rect x="102.5" y="102.5" width="99" height="99" fill="#16191B" stroke="#5C5E5F"/>
<rect x="102.5" y="102.5" width="99" height="99" rx="49.5" fill="white" stroke="#5C5E5F"/>
<rect x="102.5" y="3.5" width="99" height="99" fill="#16191B" stroke="#5C5E5F"/>
<path d="M152 3.5C179.338 3.5 201.5 25.6619 201.5 53V102.5H102.5V53C102.5 25.6619 124.662 3.5 152 3.5Z" fill="white" stroke="#5C5E5F"/>
<rect x="3.5" y="102.5" width="99" height="99" fill="#16191B" stroke="#5C5E5F"/>
<path d="M53 102.5H102.5V201.5H53C25.6619 201.5 3.5 179.338 3.5 152C3.5 124.662 25.6619 102.5 53 102.5Z" fill="white" stroke="#5C5E5F"/>
<rect x="3.5" y="3.5" width="99" height="99" fill="#16191B" stroke="#5C5E5F"/>
<rect x="3.5" y="3.5" width="99" height="99" rx="49.5" fill="white" stroke="#5C5E5F"/>
<rect width="7" height="7" fill="white"/>
<rect y="297" width="7" height="7" fill="white"/>
<rect x="298" width="7" height="7" fill="white"/>
<rect x="298" y="297" width="7" height="7" fill="white"/>
</svg>
