<svg width="305" height="304" viewBox="0 0 305 304" fill="none" xmlns="http://www.w3.org/2000/svg">
<rect x="201.5" y="201.502" width="99" height="99" fill="white" stroke="#C9C9C9"/>
<path d="M251 201.502C278.338 201.502 300.5 223.664 300.5 251.002V300.502H251C223.662 300.502 201.5 278.34 201.5 251.002V201.502H251Z" fill="white" stroke="#C9C9C9"/>
<rect x="102.5" y="201.502" width="99" height="99" fill="white" stroke="#C9C9C9"/>
<path d="M152 300.5C124.661 300.5 102.5 278.338 102.5 251L102.5 201.5L201.5 201.5L201.5 251C201.5 278.338 179.338 300.5 152 300.5Z" fill="white" stroke="#C9C9C9"/>
<rect x="3.5" y="201.502" width="99" height="99" fill="white" stroke="#C9C9C9"/>
<path d="M53 201.502H102.5V251.002C102.5 278.34 80.3381 300.502 53 300.502H3.5V251.002C3.5 223.664 25.6619 201.502 53 201.502Z" fill="white" stroke="#C9C9C9"/>
<rect x="201.5" y="102.502" width="99" height="99" fill="white" stroke="#C9C9C9"/>
<path d="M250.998 102.502C278.336 102.502 300.498 124.664 300.498 152.002C300.498 179.34 278.336 201.502 250.998 201.502H201.498V102.502H250.998Z" fill="white" stroke="#C9C9C9"/>
<rect x="201.5" y="3.50195" width="99" height="99" fill="white" stroke="#C9C9C9"/>
<path d="M251 3.50195H300.5V53.002C300.5 80.34 278.338 102.502 251 102.502H201.5V53.002C201.5 25.6639 223.662 3.50195 251 3.50195Z" fill="white" stroke="#C9C9C9"/>
<rect x="102.5" y="102.502" width="99" height="99" fill="white" stroke="#C9C9C9"/>
<path d="M152 102.502C179.338 102.502 201.5 124.664 201.5 152.002C201.5 179.34 179.338 201.502 152 201.502C124.662 201.502 102.5 179.34 102.5 152.002C102.5 124.664 124.662 102.502 152 102.502Z" fill="white" stroke="#C9C9C9"/>
<rect x="102.5" y="3.50195" width="99" height="99" fill="white" stroke="#C9C9C9"/>
<path d="M102.5 102.516L102.5 53.0156C102.5 25.6775 124.661 3.51562 152 3.51562C179.338 3.51562 201.5 25.6775 201.5 53.0156L201.5 102.516L102.5 102.516Z" fill="white" stroke="#C9C9C9"/>
<rect x="3.5" y="102.502" width="99" height="99" fill="white" stroke="#C9C9C9"/>
<path d="M53.0073 102.502L102.507 102.502L102.507 201.502H53.0073C25.6692 201.502 3.50732 179.34 3.50732 152.002C3.50732 124.664 25.6692 102.502 53.0073 102.502Z" fill="white" stroke="#C9C9C9"/>
<rect x="3.5" y="3.50195" width="99" height="99" fill="white" stroke="#C9C9C9"/>
<path d="M102.509 53.002L102.509 102.502L53.0093 102.502C25.6712 102.502 3.50927 80.34 3.50928 53.0019L3.50928 3.50195L53.0093 3.50195C80.3474 3.50195 102.509 25.6639 102.509 53.002Z" fill="white" stroke="#C9C9C9"/>
<rect width="7" height="7" fill="white"/>
<rect y="297" width="7" height="7" fill="white"/>
<rect x="298" width="7" height="7" fill="white"/>
<rect x="298" y="297" width="7" height="7" fill="white"/>
</svg>
