<svg width="305" height="304" viewBox="0 0 305 304" fill="none" xmlns="http://www.w3.org/2000/svg">
<rect x="201.5" y="201.5" width="99" height="99" fill="white" stroke="#5C5E5F"/>
<rect x="201.5" y="201.5" width="99" height="99" fill="white" stroke="#5C5E5F"/>
<rect x="102.5" y="201.5" width="99" height="99" fill="white" stroke="#5C5E5F"/>
<rect x="102.5" y="201.5" width="99" height="99" fill="white" stroke="#5C5E5F"/>
<rect x="3.5" y="201.5" width="99" height="99" fill="white" stroke="#5C5E5F"/>
<rect x="3.5" y="201.5" width="99" height="99" fill="white" stroke="#5C5E5F"/>
<rect x="201.5" y="102.5" width="99" height="99" fill="white" stroke="#5C5E5F"/>
<rect x="201.5" y="102.5" width="99" height="99" fill="white" stroke="#5C5E5F"/>
<rect x="201.5" y="3.5" width="99" height="99" fill="white" stroke="#5C5E5F"/>
<rect x="201.5" y="3.5" width="99" height="99" fill="white" stroke="#5C5E5F"/>
<rect x="102.5" y="102.5" width="99" height="99" fill="white" stroke="#5C5E5F"/>
<rect x="102.5" y="102.5" width="99" height="99" fill="white" stroke="#5C5E5F"/>
<rect x="102.5" y="3.5" width="99" height="99" fill="white" stroke="#5C5E5F"/>
<rect x="102.5" y="3.5" width="99" height="99" fill="white" stroke="#5C5E5F"/>
<rect x="3.5" y="102.5" width="99" height="99" fill="white" stroke="#5C5E5F"/>
<rect x="3.5" y="102.5" width="99" height="99" fill="white" stroke="#5C5E5F"/>
<rect x="3.5" y="3.5" width="99" height="99" fill="white" stroke="#5C5E5F"/>
<rect x="3.5" y="3.5" width="99" height="99" fill="white" stroke="#5C5E5F"/>
<rect width="7" height="7" fill="white"/>
<rect y="297" width="7" height="7" fill="white"/>
<rect x="298" width="7" height="7" fill="white"/>
<rect x="298" y="297" width="7" height="7" fill="white"/>
</svg>
